<svg width="100" height="40" viewBox="0 0 100 40" fill="none" xmlns="http://www.w3.org/2000/svg">
<rect width="100" height="40" fill="#FCD91F"/>
<path d="M19.5234 11.2871H23.002L26.9375 25.9629V30.1016H25.3379L19.5234 11.2871ZM31.9395 11.2871H35.3926L29.2988 30.1016H27.9785V25.1504L31.9395 11.2871ZM49.7637 14.8926C49.3743 14.4525 48.9596 14.1224 48.5195 13.9023C48.0794 13.6823 47.6055 13.5553 47.0977 13.5215V11.0078C48.9935 11.0924 50.5846 11.7611 51.8711 13.0137L49.7637 14.8926ZM47.0977 27.6133C47.6055 27.5625 48.0794 27.4271 48.5195 27.207C48.9766 26.987 49.3913 26.6654 49.7637 26.2422L51.8711 28.0957C51.2279 28.722 50.5085 29.2044 49.7129 29.543C48.9173 29.8815 48.0456 30.0762 47.0977 30.127V27.6133ZM38.8711 20.5547C38.8711 19.0482 39.0488 17.7194 39.4043 16.5684C39.7767 15.4173 40.2845 14.444 40.9277 13.6484C41.571 12.8529 42.3242 12.235 43.1875 11.7949C44.0677 11.3548 45.0241 11.0924 46.0566 11.0078V13.5469C45.498 13.6315 44.9733 13.8262 44.4824 14.1309C43.9915 14.4186 43.5599 14.8418 43.1875 15.4004C42.8151 15.959 42.5189 16.6699 42.2988 17.5332C42.0957 18.3796 41.9857 19.3867 41.9688 20.5547C41.9857 21.7396 42.0957 22.7552 42.2988 23.6016C42.5189 24.4479 42.8151 25.1589 43.1875 25.7344C43.5599 26.3099 43.9915 26.75 44.4824 27.0547C44.9902 27.3594 45.515 27.5456 46.0566 27.6133V30.1016C45.0241 30.0339 44.0677 29.7799 43.1875 29.3398C42.3242 28.8997 41.571 28.2819 40.9277 27.4863C40.2845 26.6908 39.7767 25.7174 39.4043 24.5664C39.0488 23.3984 38.8711 22.0612 38.8711 20.5547ZM64.8457 14.1816C64.7611 14.1478 64.6595 14.0885 64.541 14.0039C64.4225 13.9193 64.2533 13.8431 64.0332 13.7754C63.8132 13.6908 63.5339 13.623 63.1953 13.5723C62.8568 13.5215 62.4251 13.513 61.9004 13.5469V10.9824C62.6452 10.9993 63.3984 11.084 64.1602 11.2363C64.9388 11.3717 65.5651 11.5918 66.0391 11.8965C65.9375 12.1165 65.819 12.362 65.6836 12.6328C65.5482 12.8867 65.4212 13.1322 65.3027 13.3691C65.1842 13.5892 65.0827 13.7754 64.998 13.9277C64.9134 14.0801 64.8626 14.1647 64.8457 14.1816ZM56.0859 16.2129C56.0859 15.4681 56.2129 14.7995 56.4668 14.207C56.7207 13.6146 57.0592 13.0983 57.4824 12.6582C57.9225 12.2012 58.4303 11.8457 59.0059 11.5918C59.5983 11.321 60.2161 11.1432 60.8594 11.0586V13.7246C60.3177 13.9108 59.8691 14.2409 59.5137 14.7148C59.1582 15.1719 58.9805 15.6374 58.9805 16.1113C58.9805 16.7715 59.1582 17.3047 59.5137 17.7109C59.8691 18.1172 60.3177 18.4727 60.8594 18.7773V21.6719C60.3008 21.401 59.7422 21.1133 59.1836 20.8086C58.625 20.487 58.1172 20.1146 57.6602 19.6914C57.2031 19.2682 56.8223 18.7773 56.5176 18.2188C56.2298 17.6602 56.0859 16.9915 56.0859 16.2129ZM56.4922 26.5723C56.7292 26.7077 57.0254 26.8431 57.3809 26.9785C57.7533 27.097 58.1341 27.2155 58.5234 27.334C58.9128 27.4355 59.3021 27.5202 59.6914 27.5879C60.0807 27.6556 60.4447 27.6895 60.7832 27.6895H60.8594V30.1016H60.8086C60.4023 30.1016 59.9792 30.0762 59.5391 30.0254C59.1159 29.9915 58.6842 29.9238 58.2441 29.8223C57.804 29.7207 57.3809 29.5853 56.9746 29.416C56.5853 29.2298 56.2467 29.0098 55.959 28.7559L56.4922 26.5723ZM61.9004 19.2852C62.459 19.5391 63.026 19.8099 63.6016 20.0977C64.194 20.3854 64.7272 20.7409 65.2012 21.1641C65.6751 21.5703 66.0645 22.0697 66.3691 22.6621C66.6738 23.2546 66.8262 23.9909 66.8262 24.8711C66.8262 25.4805 66.7077 26.0729 66.4707 26.6484C66.2507 27.224 65.929 27.7487 65.5059 28.2227C65.0996 28.6797 64.5918 29.069 63.9824 29.3906C63.373 29.7122 62.679 29.9238 61.9004 30.0254V27.5879C63.2884 27.2493 63.9824 26.3268 63.9824 24.8203C63.9824 24.2279 63.7878 23.737 63.3984 23.3477C63.0091 22.9583 62.5098 22.5944 61.9004 22.2559V19.2852ZM78.6074 14.1816C78.5228 14.1478 78.4212 14.0885 78.3027 14.0039C78.1842 13.9193 78.015 13.8431 77.7949 13.7754C77.5749 13.6908 77.2956 13.623 76.957 13.5723C76.6185 13.5215 76.1868 13.513 75.6621 13.5469V10.9824C76.4069 10.9993 77.1602 11.084 77.9219 11.2363C78.7005 11.3717 79.3268 11.5918 79.8008 11.8965C79.6992 12.1165 79.5807 12.362 79.4453 12.6328C79.3099 12.8867 79.1829 13.1322 79.0645 13.3691C78.946 13.5892 78.8444 13.7754 78.7598 13.9277C78.6751 14.0801 78.6243 14.1647 78.6074 14.1816ZM69.8477 16.2129C69.8477 15.4681 69.9746 14.7995 70.2285 14.207C70.4824 13.6146 70.821 13.0983 71.2441 12.6582C71.6842 12.2012 72.1921 11.8457 72.7676 11.5918C73.36 11.321 73.9779 11.1432 74.6211 11.0586V13.7246C74.0794 13.9108 73.6309 14.2409 73.2754 14.7148C72.9199 15.1719 72.7422 15.6374 72.7422 16.1113C72.7422 16.7715 72.9199 17.3047 73.2754 17.7109C73.6309 18.1172 74.0794 18.4727 74.6211 18.7773V21.6719C74.0625 21.401 73.5039 21.1133 72.9453 20.8086C72.3867 20.487 71.8789 20.1146 71.4219 19.6914C70.9648 19.2682 70.584 18.7773 70.2793 18.2188C69.9915 17.6602 69.8477 16.9915 69.8477 16.2129ZM70.2539 26.5723C70.4909 26.7077 70.7871 26.8431 71.1426 26.9785C71.515 27.097 71.8958 27.2155 72.2852 27.334C72.6745 27.4355 73.0638 27.5202 73.4531 27.5879C73.8424 27.6556 74.2064 27.6895 74.5449 27.6895H74.6211V30.1016H74.5703C74.1641 30.1016 73.7409 30.0762 73.3008 30.0254C72.8776 29.9915 72.446 29.9238 72.0059 29.8223C71.5658 29.7207 71.1426 29.5853 70.7363 29.416C70.347 29.2298 70.0085 29.0098 69.7207 28.7559L70.2539 26.5723ZM75.6621 19.2852C76.2207 19.5391 76.7878 19.8099 77.3633 20.0977C77.9557 20.3854 78.4889 20.7409 78.9629 21.1641C79.4368 21.5703 79.8262 22.0697 80.1309 22.6621C80.4355 23.2546 80.5879 23.9909 80.5879 24.8711C80.5879 25.4805 80.4694 26.0729 80.2324 26.6484C80.0124 27.224 79.6908 27.7487 79.2676 28.2227C78.8613 28.6797 78.3535 29.069 77.7441 29.3906C77.1348 29.7122 76.4408 29.9238 75.6621 30.0254V27.5879C77.0501 27.2493 77.7441 26.3268 77.7441 24.8203C77.7441 24.2279 77.5495 23.737 77.1602 23.3477C76.7708 22.9583 76.2715 22.5944 75.6621 22.2559V19.2852Z" fill="#333333"/>
</svg>
